<?xml version="1.0" encoding="UTF-8" standalone="no"?>
<svg width="521px" height="606px" viewBox="0 0 521 606" version="1.1" xmlns="http://www.w3.org/2000/svg" xmlns:xlink="http://www.w3.org/1999/xlink">
    <!-- Generator: Sketch 3.8.3 (29802) - http://www.bohemiancoding.com/sketch -->
    <title>logo</title>
    <desc>Created with Sketch.</desc>
    <defs></defs>
    <g id="Page-1" stroke="none" stroke-width="1" fill="none" fill-rule="evenodd">
        <g id="Finish" transform="translate(-79.000000, -87.000000)" fill="#000000">
            <path d="M593.19654,296.190785 C594.303704,242.872904 591.728743,194.900362 585.970752,151.93735 C514.941566,113.925668 426.572883,92.8749864 342.631535,92.3261449 C342.144125,92.3188108 338.289076,92.3188108 337.801667,92.3261449 C252.396918,92.8845547 162.409122,114.665878 90.7634919,153.940837 C85.1922372,196.390338 82.7134745,243.700187 83.8034604,296.190785 C89.2026377,556.199694 226.574096,640.874041 338.5,687.384868 C450.425904,640.874041 587.797362,556.199694 593.19654,296.190785 L593.19654,296.190785 Z M575.765801,301.497911 C576.843566,249.595822 574.175826,203.131082 568.293093,161.74674 C501.775677,127.961963 420.084392,109.289272 342.390486,108.790524 C341.928016,108.783692 338.270226,108.783692 337.807757,108.790524 C258.766149,109.297924 175.58728,128.615236 108.457454,163.518488 C102.748926,204.456036 100.171787,250.335207 101.234199,301.497911 C106.263871,543.712517 234.234001,622.591982 338.5,665.919735 C442.765999,622.591982 570.736129,543.712517 575.765801,301.497911 L575.765801,301.497911 Z" id="Blason"></path>
            <path d="M472.10593,555.048705 C431.995792,598.283805 383.512807,623.386182 339.6,641.634156 L339.6,641.634156 C314.379151,631.153628 287.650757,618.412068 261.866937,601.272746 L472.10593,555.048705 L472.10593,555.048705 L472.10593,555.048705 Z M336.748433,619.27952 L319.154025,623.147901 L326.801543,608.630928 C327.267264,607.747617 327.583307,606.971467 327.749681,606.302455 C327.916056,605.633443 327.941574,605.036655 327.826237,604.512073 C327.648618,603.704216 327.249454,603.101812 326.628732,602.704844 C326.00801,602.307876 325.28324,602.200509 324.4544,602.382742 C323.468185,602.599575 322.779376,603.080979 322.387952,603.826969 C321.996528,604.572958 321.932301,605.543962 322.195269,606.74001 L322.257551,607.023283 L316.717988,608.241235 L316.683387,608.083861 C316.109009,605.47144 316.420151,603.247295 317.616822,601.411359 C318.813493,599.575423 320.733748,598.366824 323.377644,597.785525 C325.958589,597.218068 328.161398,597.432163 329.986134,598.427819 C331.810871,599.423475 332.966583,601.028147 333.453304,603.241885 C333.690899,604.322525 333.680841,605.427351 333.423133,606.556397 C333.165424,607.685443 332.614311,608.980719 331.769778,610.442265 L328.621992,615.935311 L335.672345,614.38519 L336.748433,619.27952 L336.748433,619.27952 Z M354.356836,603.743873 C355.159581,607.394967 355.016717,610.434509 353.92824,612.862591 C352.839762,615.290673 350.94213,616.802261 348.235284,617.3974 C345.528439,617.992538 343.162489,617.399112 341.137365,615.617104 C339.11224,613.835096 337.690253,611.081865 336.871361,607.35733 C336.054775,603.643286 336.192505,600.555378 337.284554,598.093515 C338.376602,595.631651 340.276021,594.103173 342.982866,593.508034 C345.731678,592.903668 348.102874,593.495941 350.096523,595.284869 C352.090173,597.073798 353.510263,599.893438 354.356836,603.743873 L354.356836,603.743873 Z M342.67846,606.080556 C343.232077,608.598552 343.869762,610.385862 344.591535,611.442539 C345.313309,612.499217 346.183027,612.915672 347.200717,612.691919 C348.197424,612.472778 348.801183,611.729608 349.012013,610.462385 C349.222844,609.195162 349.052606,607.307827 348.501296,604.800323 C347.954599,602.313802 347.318643,600.534361 346.59341,599.461946 C345.868177,598.389531 345.00722,597.9629 344.010513,598.18204 C342.982332,598.408101 342.363728,599.146286 342.154683,600.396618 C341.945638,601.64695 342.120229,603.541577 342.67846,606.080556 L342.67846,606.080556 Z M365.227872,613.017909 L361.35949,595.423502 L356.417948,596.50997 L357.97603,590.690019 L365.939152,588.939213 L370.956284,611.758436 L365.227872,613.017909 L365.227872,613.017909 Z M376.601274,602.515704 L382.439848,601.23201 L382.52289,601.609708 C382.744337,602.616906 383.148208,603.328261 383.734516,603.743795 C384.320823,604.159328 385.075599,604.265597 385.998864,604.062604 C386.964095,603.850384 387.648961,603.438588 388.053482,602.827205 C388.458003,602.215821 388.556459,601.438017 388.348852,600.493769 C388.115871,599.434112 387.669197,598.71567 387.008815,598.33842 C386.348434,597.961171 385.430724,597.901724 384.255659,598.160079 C384.06681,598.2016 383.923128,598.23594 383.824611,598.2631 C383.726094,598.29026 383.63487,598.313066 383.550937,598.33152 L382.737815,594.633232 L383.068301,594.560571 C384.127957,594.32759 384.8903,593.918008 385.355353,593.331811 C385.820406,592.745615 385.956047,592.011878 385.762281,591.13058 C385.607729,590.427639 385.243332,589.90833 384.669079,589.572638 C384.094826,589.236945 383.435256,589.150989 382.690349,589.314768 C381.892984,589.49008 381.321273,589.841251 380.9752,590.368292 C380.629127,590.895332 380.532103,591.554586 380.684125,592.346073 L375.113087,593.570945 C374.682173,591.41093 375.067595,589.574654 376.269365,588.062062 C377.471135,586.54947 379.388693,585.503694 382.022097,584.924702 C384.372227,584.407993 386.338417,584.533879 387.920728,585.302366 C389.503039,586.070852 390.494866,587.36785 390.896238,589.193397 C391.152286,590.35797 391.060194,591.414841 390.619959,592.364041 C390.179724,593.313241 389.407208,594.101764 388.302388,594.729634 C389.797412,594.675902 391.052581,595.057104 392.067934,595.873253 C393.083286,596.689402 393.760497,597.868595 394.099587,599.410867 C394.590923,601.645588 394.195252,603.635349 392.912563,605.380209 C391.629875,607.12507 389.708578,608.278905 387.148616,608.841749 C384.462754,609.432274 382.177018,609.178668 380.29134,608.080924 C378.405661,606.983179 377.191799,605.201565 376.649715,602.736028 L376.601274,602.515704 L376.601274,602.515704 Z" id="Ligne-Bas"></path>
            <path d="M470.575299,147.258738 C428.946208,135.612255 384.854217,129.349872 342.079247,129.075283 C341.653775,129.068997 341.227359,129.065846 340.8,129.065846 C340.523789,129.065846 340.247519,129.066097 339.971192,129.066598 C339.694864,129.066097 339.418594,129.065846 339.142383,129.065846 C338.715024,129.065846 338.288608,129.068997 337.863136,129.075283 C265.144857,129.54209 188.620298,147.314017 126.860858,179.425009 C124.885975,193.58748 123.318457,208.39281 122.183163,223.857726 L470.575317,147.258743 L470.575299,147.258738 L470.575299,147.258738 Z M172.321002,202.683337 L165.720407,172.66211 L174.271535,170.782022 C177.620915,170.045613 179.989006,169.686185 181.375881,169.703726 C182.762756,169.721267 184.01431,169.987112 185.13058,170.501269 C186.390929,171.084071 187.451363,171.947286 188.311912,173.090938 C189.172462,174.234591 189.77105,175.57197 190.107694,177.103115 C190.618671,179.427174 190.463457,181.442641 189.642046,183.149576 C188.820635,184.856511 187.368877,186.18966 185.286729,187.149063 L196.128819,197.448849 L186.880477,199.482229 L177.40693,189.247008 L179.990359,200.997119 L172.321002,202.683337 L172.321002,202.683337 Z M176.509718,185.166253 L178.027184,184.832617 C179.790735,184.444875 181.013076,183.860831 181.694243,183.080468 C182.375411,182.300104 182.574722,181.267404 182.292181,179.982336 C181.961549,178.478533 181.346989,177.492207 180.448485,177.023327 C179.549981,176.554448 178.205302,176.516885 176.41441,176.910639 L174.773905,177.271327 L176.509718,185.166253 L176.509718,185.166253 Z M192.460626,166.782891 L200.622134,164.988467 L203.83226,179.588955 C204.304162,181.735292 204.697739,183.264644 205.013,184.177057 C205.328261,185.08947 205.684893,185.831543 206.082905,186.403296 C206.565659,187.099737 207.240982,187.563932 208.108895,187.795897 C208.976808,188.027862 209.971258,188.020609 211.092275,187.774137 C212.213292,187.527666 213.115656,187.117877 213.799394,186.54476 C214.483132,185.971642 214.904885,185.266239 215.064666,184.428528 C215.186149,183.742556 215.198627,182.91933 215.102101,181.958824 C215.005575,180.998319 214.721364,179.444921 214.249461,177.298584 L213.798601,175.247954 L211.039336,162.698097 L219.180338,160.908181 L222.669997,176.78006 C223.394383,180.074755 223.730421,182.548311 223.678123,184.2008 C223.625824,185.853289 223.249766,187.336882 222.549937,188.651625 C221.792128,190.09377 220.584674,191.315879 218.927537,192.317989 C217.2704,193.320099 215.163631,194.10218 212.607165,194.664255 C210.037029,195.229336 207.793088,195.403821 205.875275,195.187715 C203.957462,194.971608 202.345328,194.369426 201.038825,193.38115 C199.865736,192.478195 198.90548,191.288409 198.158029,189.811756 C197.410578,188.335104 196.67467,185.949465 195.950284,182.654769 L195.264977,179.537811 L192.460626,166.782891 L192.460626,166.782891 Z M243.836592,175.372417 L242.452451,169.076982 L258.529393,165.542237 C258.58815,165.744295 258.647997,165.967608 258.708936,166.212182 C258.769875,166.456756 258.852944,166.818279 258.958145,167.296762 C260.094319,172.464376 259.612086,176.773137 257.511433,180.223175 C255.41078,183.673212 251.886067,185.942238 246.937188,187.03032 C244.503761,187.565343 242.259965,187.675304 240.205733,187.360205 C238.151501,187.045107 236.214031,186.29948 234.393267,185.123304 C232.655885,184.000454 231.178515,182.544576 229.961111,180.755627 C228.743707,178.966678 227.899066,176.999065 227.427163,174.852728 C226.93422,172.610694 226.863891,170.465672 227.216172,168.417596 C227.568454,166.36952 228.338004,164.426791 229.524846,162.589349 C230.707033,160.795926 232.189501,159.309127 233.972293,158.128906 C235.755086,156.948685 237.774304,156.110613 240.030008,155.614664 C242.96926,154.968427 245.697859,154.977598 248.215888,155.642176 C250.733917,156.306754 253.017788,157.617557 255.06757,159.574625 L248.720817,164.538648 C247.61773,163.562975 246.474086,162.907949 245.289849,162.57355 C244.105613,162.239152 242.857309,162.216229 241.544899,162.504782 C239.097801,163.042811 237.349819,164.283442 236.3009,166.226711 C235.25198,168.16998 235.038619,170.556521 235.660809,173.386405 C236.289011,176.243631 237.487492,178.337672 239.256289,179.668592 C241.025085,180.999512 243.133001,181.395952 245.580099,180.857922 C247.658081,180.401048 249.278884,179.51084 250.442555,178.187272 C251.606227,176.863704 252.117902,175.328795 251.977595,173.582501 L243.836592,175.372417 L243.836592,175.372417 Z M267.388221,181.781453 L260.787626,151.760226 L269.010654,149.952276 C272.401046,149.20685 274.793546,148.795477 276.188225,148.718146 C277.582905,148.640814 278.824156,148.762026 279.912017,149.081784 C281.154621,149.453511 282.179883,150.09157 282.987832,150.995981 C283.795781,151.900393 284.348532,153.029293 284.646101,154.382715 C285.02182,156.091583 284.88609,157.543834 284.238908,158.739513 C283.591727,159.935192 282.375133,161.001663 280.589091,161.938958 C282.757827,161.634112 284.590218,162.015888 286.086321,163.084299 C287.582424,164.152709 288.57543,165.801071 289.065367,168.029433 C289.41704,169.628933 289.388277,171.11141 288.979077,172.476908 C288.569878,173.842406 287.810067,174.99834 286.699623,175.944745 C285.794532,176.717014 284.615652,177.384657 283.162947,177.947696 C281.710242,178.510734 279.275058,179.167962 275.857324,179.9194 L267.388221,181.781453 L267.388221,181.781453 Z M273.627481,173.981885 L276.498363,173.350681 C278.439636,172.923864 279.760194,172.379135 280.460075,171.716478 C281.159956,171.05382 281.385154,170.155161 281.135677,169.020473 C280.859148,167.762747 280.296922,166.965557 279.448981,166.628878 C278.601041,166.292199 277.179114,166.343279 275.183157,166.782119 L272.189237,167.440375 L273.627481,173.981885 L273.627481,173.981885 Z M301.203114,174.346766 L298.191368,160.648556 L284.103293,146.633944 L293.495179,144.569004 L299.234664,151.411685 C299.271023,151.446686 299.328567,151.512858 299.407297,151.610203 C300.008435,152.32361 300.472178,153.031384 300.79854,153.733545 C300.787967,153.033612 300.918077,152.223934 301.188873,151.304488 C301.237835,151.136073 301.269976,151.02152 301.285294,150.960825 L303.58428,142.350771 L312.996673,140.281322 L306.086294,158.912744 L309.098041,172.610954 L301.203114,174.346766 L301.203114,174.346766 Z M271.012491,162.08823 L272.652995,161.727541 C274.676294,161.28269 276.015031,160.755462 276.669245,160.14584 C277.32346,159.536218 277.530334,158.684583 277.289874,157.590908 C277.040397,156.45622 276.513293,155.737297 275.708547,155.434117 C274.903801,155.130937 273.482965,155.203274 271.445995,155.651131 L269.682453,156.03887 L271.012491,162.08823 L271.012491,162.08823 Z" id="Ligne-Haut"></path>
            <path d="M362.465668,199.272293 L362.476964,199.254748 L305.062893,211.87805 L282.778033,246.661345 L247.994434,224.425365 L190.933441,236.971038 L260.540116,281.486399 L216.015717,351.051773 L273.07671,338.5061 L295.349267,303.838593 L330.14517,325.958785 L354.287741,320.650697 L366.850331,377.78863 L500.476918,168.928551 L443.406112,181.476382 L398.840991,251.153407 L386.282858,194.035744 L362.465668,199.272293 L362.465668,199.272293 Z M336.475698,239.636876 L317.608575,268.939084 L347.022775,287.607735 L336.475698,239.636876 Z M183.975097,477.700089 L273.078153,338.533524 L330.182706,325.978274 L241.169134,465.125162 L355.260905,440.04046 L377.991783,543.426422 L320.887229,555.981672 L308.476159,499.532888 L194.294904,524.637265 L183.975097,477.700089 Z M411.399903,308.134769 L468.468936,295.587328 L481.005897,352.608698 L436.512417,422.184367 L449.039223,479.328215 L391.975757,491.874426 L379.413578,434.73836 L423.936862,365.156139 L411.399903,308.134769 Z M493.564912,409.672925 L506.115487,466.756212 L449.039532,479.305175 L493.564912,409.672925 Z" id="XV42"></path>
        </g>
    </g>
</svg>